<?xml version="1.0" encoding="UTF-8"?>
<svg xmlns="http://www.w3.org/2000/svg" xmlns:xlink="http://www.w3.org/1999/xlink" viewBox="0 0 1451.34 1451.34">
  <defs>
    <style>
      .cls-1 {
        fill: #fff;
      }

      .cls-2 {
        fill: none;
      }

      .cls-3 {
        fill: url(#Dégradé_sans_nom_1878);
      }

      .cls-4 {
        fill: url(#Dégradé_sans_nom_1877);
      }
    </style>
    <linearGradient id="Dégradé_sans_nom_1878" data-name="Dégradé sans nom 1878" x1="203.3" y1="454.08" x2="865.54" y2="1073.4" gradientUnits="userSpaceOnUse">
      <stop offset=".33" stop-color="#5b4394"/>
      <stop offset=".56" stop-color="#72216a"/>
      <stop offset=".72" stop-color="#b08dbf"/>
    </linearGradient>
    <linearGradient id="Dégradé_sans_nom_1877" data-name="Dégradé sans nom 1877" x1="361.54" y1="350.81" x2="1100.05" y2="1041.45" gradientUnits="userSpaceOnUse">
      <stop offset=".08" stop-color="#5b4394"/>
      <stop offset=".77" stop-color="#70256d"/>
      <stop offset=".93" stop-color="#b08dbf"/>
    </linearGradient>
  </defs>
  <rect class="cls-1" x="-107.72" y="-141.73" width="1666.77" height="1734.8"/>
  <g id="Calque_1" data-name="Calque 1">
    <g>
      <polygon class="cls-2" points="354.04 373.57 1369.62 373.57 1092.78 1070.47 75.21 1075.72 354.04 373.57"/>
      <path class="cls-3" d="M711.68,840.14l-123.53-359.36c-.16-.46-.36-.88-.53-1.33-.19-.49-.38-.97-.58-1.45-.49-1.14-1.03-2.23-1.61-3.3-.16-.3-.3-.6-.47-.9-.79-1.37-1.66-2.68-2.59-3.93-.2-.26-.42-.51-.62-.76-.79-1.01-1.63-1.97-2.51-2.88-.31-.32-.61-.63-.93-.94-1.05-1.03-2.15-2-3.31-2.9-.1-.08-.2-.17-.3-.25-1.32-1-2.7-1.9-4.13-2.73-.13-.08-.24-.17-.37-.25-.29-.16-.59-.28-.88-.44-.69-.37-1.38-.72-2.09-1.05-.53-.25-1.07-.47-1.61-.69-.63-.26-1.27-.51-1.92-.73-.62-.22-1.23-.41-1.85-.6-.6-.18-1.19-.34-1.8-.49-.66-.16-1.32-.31-1.98-.43-.6-.11-1.2-.21-1.81-.3-.66-.09-1.32-.17-1.99-.24-.62-.06-1.25-.1-1.88-.13-.65-.03-1.3-.04-1.95-.04-.64,0-1.27.02-1.91.06-.66.04-1.31.09-1.97.16-.62.06-1.23.14-1.85.24-.7.11-1.39.23-2.07.38-.56.12-1.13.24-1.69.38-.75.19-1.49.41-2.23.64-.32.1-.65.17-.97.28-.19.06-.36.15-.55.22-.74.27-1.47.57-2.2.88-.49.21-.99.41-1.47.64-.67.32-1.32.68-1.98,1.04-.5.27-1,.54-1.49.83-.6.36-1.17.76-1.75,1.15-.5.34-1,.67-1.48,1.03-.53.4-1.04.83-1.55,1.26-.48.4-.97.79-1.43,1.22-.47.43-.92.9-1.37,1.35-.46.47-.93.93-1.37,1.42-.4.45-.78.92-1.16,1.39-.45.55-.9,1.1-1.31,1.67-.33.46-.64.93-.96,1.41-.42.63-.83,1.26-1.21,1.91-.11.18-.23.35-.34.53l-211.27,372.86c-3.5,6.18-5.16,12.9-5.16,19.52,0,13.81,7.23,27.23,20.11,34.53,6.18,3.5,12.89,5.16,19.51,5.16,13.82,0,27.24-7.23,34.54-20.11l167.88-296.28,94.92,276.12c5.65,16.44,21.04,26.77,37.5,26.77,4.27,0,8.62-.7,12.89-2.16,20.71-7.12,31.73-29.68,24.61-50.4Z"/>
      <g>
        <path class="cls-2" d="M876.33,910.19c-77.71,0-142.13-64.15-166.03-155.87H228.23l-98.39,247.75,937.77-4.83,96.5-242.92h-121.75c-23.9,91.73-88.32,155.87-166.03,155.87Z"/>
        <path class="cls-2" d="M259.72,675.01h440.61c0-.1,0-.2,0-.3,0-132.04,77.31-235.48,176.01-235.48s176.01,103.44,176.01,235.48c0,.1,0,.2,0,.3h143.28l119.48-300.77H379.17l-119.44,300.77Z"/>
        <path class="cls-4" d="M1400.25,316.43c-6.89-10.15-18.36-16.22-30.63-16.22H354.04c-15.17,0-28.8,9.25-34.4,23.35L40.81,1025.7c-4.54,11.43-3.1,24.37,3.83,34.53,6.9,10.11,18.34,16.15,30.57,16.15h.19l1017.58-5.25c15.1-.08,28.63-9.32,34.21-23.35l276.84-696.9c4.53-11.4,3.11-24.3-3.77-34.45ZM1067.61,997.24l-937.77,4.83,98.39-247.75h482.08c23.9,91.73,88.32,155.87,166.03,155.87s142.13-64.15,166.03-155.87h121.75l-96.5,242.92ZM779.64,674.71c0-84.65,44.28-156.17,96.69-156.17s96.69,71.52,96.69,156.17c0,.1,0,.2,0,.3-.04,28.72-5.17,55.92-13.99,79.31-17.12,45.45-48.14,76.56-82.7,76.56s-65.58-31.11-82.7-76.56c-8.81-23.4-13.95-50.59-13.99-79.31,0-.1,0-.2,0-.3ZM1195.61,675.01h-143.28c0-.1,0-.2,0-.3,0-132.04-77.31-235.48-176.01-235.48s-176.01,103.44-176.01,235.48c0,.1,0,.2,0,.3h-440.61l119.44-300.77h935.93l-119.48,300.77Z"/>
      </g>
    </g>
  </g>
</svg>